<?xml version="1.0" encoding="UTF-8" standalone="no"?>
<!DOCTYPE svg PUBLIC "-//W3C//DTD SVG 1.1//EN" "http://www.w3.org/Graphics/SVG/1.1/DTD/svg11.dtd">
<svg width="100%" height="100%" viewBox="0 0 500 600" version="1.1" xmlns="http://www.w3.org/2000/svg" xmlns:xlink="http://www.w3.org/1999/xlink" xml:space="preserve" xmlns:serif="http://www.serif.com/" style="fill-rule:evenodd;clip-rule:evenodd;stroke-linejoin:round;stroke-miterlimit:2;">
    <g id="calculator-svgrepo-com.svg" transform="matrix(1.11799,0,0,1.17271,249.908,298.947)">
        <g transform="matrix(1,0,0,1,-256,-256)">
            <g id="_x34_2._Calculator_1_">
                <g id="XMLID_90_">
                    <g>
                        <g>
                            <path d="M467.579,147.531L467.579,481.691C467.579,491.729 459.432,499.876 449.394,499.876L326.522,499.876L326.522,147.531L467.579,147.531Z" style="fill:rgb(175,255,183);fill-rule:nonzero;"/>
                        </g>
                        <g>
                            <path d="M467.579,30.309L467.579,147.531L44.421,147.531L44.421,30.309C44.421,20.271 52.568,12.124 62.606,12.124L449.394,12.124C459.432,12.124 467.579,20.271 467.579,30.309Z" style="fill:rgb(117,179,170);fill-rule:nonzero;"/>
                        </g>
                        <g>
                            <path d="M326.522,323.673L326.522,499.876L185.478,499.876L185.478,323.673L326.522,323.673ZM289.546,435.016C289.546,429.306 284.915,424.674 279.204,424.674C273.494,424.674 268.863,429.306 268.863,435.016C268.863,440.726 273.494,445.357 279.204,445.357C284.915,445.357 289.546,440.726 289.546,435.016ZM243.125,388.595C243.125,382.885 238.506,378.253 232.783,378.253C227.073,378.253 222.454,382.885 222.454,388.595C222.454,394.305 227.073,398.936 232.783,398.936C238.506,398.936 243.125,394.305 243.125,388.595Z" style="fill:rgb(102,102,102);fill-rule:nonzero;"/>
                        </g>
                        <g>
                            <path d="M326.522,147.531L326.522,323.673L185.478,323.673L185.478,147.531L326.522,147.531Z" style="fill:rgb(179,179,179);fill-rule:nonzero;"/>
                        </g>
                        <g>
                            <circle cx="279.204" cy="435.016" r="10.341" style="fill:rgb(51,51,51);"/>
                        </g>
                        <g>
                            <path d="M232.783,378.253C238.506,378.253 243.125,382.885 243.125,388.595C243.125,394.305 238.506,398.936 232.783,398.936C227.073,398.936 222.454,394.305 222.454,388.595C222.454,382.885 227.073,378.253 232.783,378.253Z" style="fill:rgb(51,51,51);fill-rule:nonzero;"/>
                        </g>
                        <g>
                            <path d="M185.478,323.673L185.478,499.876L62.606,499.876C52.568,499.876 44.421,491.729 44.421,481.691L44.421,323.673L185.478,323.673Z" style="fill:rgb(179,179,179);fill-rule:nonzero;"/>
                        </g>
                        <g>
                            <path d="M185.478,147.531L185.478,323.673L44.421,323.673L44.421,147.531L185.478,147.531Z" style="fill:rgb(102,102,102);fill-rule:nonzero;"/>
                        </g>
                    </g>
                    <g>
                        <g>
                            <path d="M449.394,512L62.606,512C45.894,512 32.297,498.403 32.297,481.691L32.297,30.309C32.297,13.597 45.894,0 62.606,0L449.394,0C466.106,0 479.703,13.597 479.703,30.309L479.703,481.691C479.703,498.403 466.106,512 449.394,512ZM62.606,24.247C59.263,24.247 56.544,26.966 56.544,30.309L56.544,481.691C56.544,485.034 59.263,487.753 62.606,487.753L449.394,487.753C452.737,487.753 455.456,485.034 455.456,481.691L455.456,30.309C455.456,26.966 452.737,24.247 449.394,24.247L62.606,24.247Z" style="fill:rgb(64,64,64);fill-rule:nonzero;"/>
                        </g>
                        <g>
                            <path d="M467.579,159.654L44.421,159.654C37.725,159.654 32.297,154.227 32.297,147.531C32.297,140.835 37.725,135.407 44.421,135.407L467.579,135.407C474.275,135.407 479.703,140.835 479.703,147.531C479.703,154.227 474.275,159.654 467.579,159.654Z" style="fill:rgb(64,64,64);fill-rule:nonzero;"/>
                        </g>
                        <g>
                            <path d="M326.522,510.873C319.827,510.873 314.399,505.445 314.399,498.749L314.399,148.598C314.399,141.902 319.827,136.474 326.522,136.474C333.218,136.474 338.646,141.902 338.646,148.598L338.646,498.749C338.646,505.445 333.218,510.873 326.522,510.873Z" style="fill:rgb(64,64,64);fill-rule:nonzero;"/>
                        </g>
                        <g>
                            <path d="M325.637,335.797L45.306,335.797C38.61,335.797 33.182,330.369 33.182,323.673C33.182,316.978 38.61,311.55 45.306,311.55L325.637,311.55C332.333,311.55 337.761,316.978 337.761,323.673C337.761,330.369 332.333,335.797 325.637,335.797Z" style="fill:rgb(64,64,64);fill-rule:nonzero;"/>
                        </g>
                        <g>
                            <path d="M144.924,247.732L84.974,247.732C78.278,247.732 72.85,242.304 72.85,235.608C72.85,228.912 78.278,223.485 84.974,223.485L144.924,223.485C151.62,223.485 157.048,228.912 157.048,235.608C157.048,242.304 151.62,247.732 144.924,247.732Z" style="fill:rgb(38,38,38);fill-rule:nonzero;"/>
                        </g>
                        <g>
                            <path d="M114.955,277.701C108.259,277.701 102.832,272.273 102.832,265.578L102.832,205.627C102.832,198.931 108.259,193.503 114.955,193.503C121.651,193.503 127.079,198.931 127.079,205.627L127.079,265.578C127.079,272.273 121.651,277.701 114.955,277.701Z" style="fill:rgb(51,51,51);fill-rule:nonzero;"/>
                        </g>
                        <g>
                            <path d="M286.575,247.732L225.425,247.732C218.729,247.732 213.301,242.304 213.301,235.608C213.301,228.912 218.729,223.485 225.425,223.485L286.575,223.485C293.271,223.485 298.699,228.912 298.699,235.608C298.699,242.304 293.271,247.732 286.575,247.732Z" style="fill:rgb(38,38,38);fill-rule:nonzero;"/>
                        </g>
                        <g>
                            <path d="M138.159,447.139C135.056,447.139 131.955,445.956 129.587,443.588L83.167,397.167C78.433,392.433 78.432,384.757 83.166,380.022C87.9,375.288 95.577,375.287 100.311,380.022L146.732,426.443C151.466,431.177 151.466,438.854 146.732,443.588C144.364,445.955 141.262,447.139 138.159,447.139Z" style="fill:rgb(51,51,51);fill-rule:nonzero;"/>
                        </g>
                        <g>
                            <path d="M91.739,447.139C88.635,447.139 85.531,445.955 83.164,443.586C78.431,438.85 78.432,431.174 83.167,426.441L129.585,380.023C134.316,375.287 141.993,375.286 146.73,380.02C151.465,384.753 151.467,392.429 146.734,397.165L100.309,443.589C97.941,445.956 94.84,447.139 91.739,447.139Z" style="fill:rgb(38,38,38);fill-rule:nonzero;"/>
                        </g>
                        <g>
                            <path d="M232.783,447.139C229.681,447.139 226.577,445.956 224.211,443.588C219.477,438.854 219.477,431.177 224.211,426.443L270.632,380.022C275.366,375.288 283.043,375.288 287.778,380.022C292.512,384.757 292.512,392.433 287.778,397.169L241.357,443.589C238.99,445.956 235.886,447.139 232.783,447.139Z" style="fill:rgb(38,38,38);fill-rule:nonzero;"/>
                        </g>
                        <g>
                            <path d="M427.681,314.666L365.718,314.666C359.022,314.666 353.594,309.238 353.594,302.542C353.594,295.846 359.022,290.419 365.718,290.419L427.681,290.419C434.377,290.419 439.805,295.846 439.805,302.542C439.805,309.238 434.377,314.666 427.681,314.666Z" style="fill:rgb(38,38,38);fill-rule:nonzero;"/>
                        </g>
                        <g>
                            <path d="M427.681,356.989L365.718,356.989C359.022,356.989 353.594,351.561 353.594,344.865C353.594,338.17 359.022,332.742 365.718,332.742L427.681,332.742C434.377,332.742 439.805,338.17 439.805,344.865C439.805,351.561 434.377,356.989 427.681,356.989Z" style="fill:rgb(38,38,38);fill-rule:nonzero;"/>
                        </g>
                        <g>
                            <path d="M185.478,510.873C178.782,510.873 173.354,505.445 173.354,498.749L173.354,148.598C173.354,141.902 178.782,136.474 185.478,136.474C192.173,136.474 197.601,141.902 197.601,148.598L197.601,498.749C197.601,505.445 192.173,510.873 185.478,510.873Z" style="fill:rgb(64,64,64);fill-rule:nonzero;"/>
                        </g>
                    </g>
                </g>
            </g>
        </g>
    </g>
    <g transform="matrix(1.78148,0,0,1.76512,-59.9718,-123.635)">
        <g transform="matrix(94.4223,0,0,94.4223,144.071,155.488)">
            <path d="M0.06,-0.08L0.06,-0.302L0.092,-0.334L0.124,-0.302L0.124,-0.08L0.092,-0.048L0.06,-0.08ZM0.06,-0.398L0.06,-0.621L0.092,-0.652L0.124,-0.621L0.124,-0.398L0.092,-0.366L0.06,-0.398ZM0.108,-0.032L0.14,-0.063L0.362,-0.063L0.394,-0.032L0.362,-0L0.14,-0L0.108,-0.032ZM0.108,-0.668L0.14,-0.7L0.362,-0.7L0.394,-0.668L0.362,-0.636L0.14,-0.636L0.108,-0.668ZM0.182,-0.35L0.214,-0.382L0.362,-0.382L0.394,-0.35L0.362,-0.318L0.214,-0.318L0.182,-0.35ZM0.378,-0.08L0.378,-0.302L0.41,-0.334L0.442,-0.302L0.442,-0.08L0.41,-0.048L0.378,-0.08Z" style="fill:rgb(75,127,120);fill-rule:nonzero;"/>
        </g>
        <g transform="matrix(94.4223,0,0,94.4223,195.999,155.488)">
            <path d="M0.06,-0.032L0.06,-0.302L0.092,-0.334L0.124,-0.302L0.124,-0.032L0.092,-0L0.06,-0.032ZM0.06,-0.398L0.06,-0.621L0.092,-0.652L0.124,-0.621L0.124,-0.398L0.092,-0.366L0.06,-0.398ZM0.108,-0.35L0.14,-0.382L0.362,-0.382L0.394,-0.35L0.362,-0.318L0.14,-0.318L0.108,-0.35ZM0.108,-0.668L0.14,-0.7L0.362,-0.7L0.394,-0.668L0.362,-0.636L0.14,-0.636L0.108,-0.668ZM0.378,-0.398L0.378,-0.621L0.41,-0.652L0.442,-0.621L0.442,-0.398L0.41,-0.366L0.378,-0.398Z" style="fill:rgb(75,127,120);fill-rule:nonzero;"/>
        </g>
        <g transform="matrix(94.4223,0,0,94.4223,247.926,155.488)">
            <path d="M0.06,-0.032L0.06,-0.302L0.092,-0.334L0.124,-0.302L0.124,-0.032L0.092,-0L0.06,-0.032ZM0.06,-0.397L0.06,-0.621L0.092,-0.652L0.124,-0.621L0.124,-0.397L0.092,-0.366L0.06,-0.397ZM0.108,-0.35L0.14,-0.382L0.362,-0.382L0.394,-0.35L0.362,-0.318L0.14,-0.318L0.108,-0.35ZM0.108,-0.668L0.14,-0.7L0.362,-0.7L0.394,-0.668L0.362,-0.636L0.14,-0.636L0.108,-0.668ZM0.378,-0.032L0.378,-0.302L0.41,-0.334L0.442,-0.302L0.442,-0.032L0.41,-0L0.378,-0.032ZM0.378,-0.397L0.378,-0.621L0.41,-0.652L0.442,-0.621L0.442,-0.397L0.41,-0.366L0.378,-0.397Z" style="fill:rgb(75,127,120);fill-rule:nonzero;"/>
        </g>
    </g>
</svg>
